# xmcd CD database file
# Copyright (C) 1993-1998 Ti Kan
# 
# Track frame offsets:
#     185
#     16147
#     30585
#     46272
#     58567
#     88087
#     106305
#     121215
#     142620
#     158090
# 
# Disc length: 2352 seconds
# 
# Revision: 1
# Processed by: cddbd v1.4b41PL1 Copyright (c) Steve Scherf et al.
# Submitted via: DiscPlay 4.0.4
# 
DISCID=6e092e0a
DTITLE=Ace Moreland - I'm A Damn Good Time
DYEAR=1900
DGENRE=
TTITLE0=Ain't Nothing But A Party
TTITLE1=I'm Gettin' Out Of Here
TTITLE2=I'm A Damn Good Time
TTITLE3=Let's Have Some Fun
TTITLE4=Down To The Bottom
TTITLE5=Your Love Is A Lie
TTITLE6=Can't Get Enough
TTITLE7=The Blues Gonna Get Me
TTITLE8=Every Little Bit Hurts
TTITLE9=Just Like A Surfer
EXTD=
EXTT0=
EXTT1=
EXTT2=
EXTT3=
EXTT4=
EXTT5=
EXTT6=
EXTT7=
EXTT8=
EXTT9=
PLAYORDER=
